# xmcd CD database file
#
# Track frame offsets:
#	150
#	12612
#	25662
#	44080
#	63540
#	78692
#	97605
#	108682
#	129677
#
# Disc length: 2278 seconds
#
# Revision: 0
# Processed by: cddbd v1.5PL3 Copyright (c) Steve Scherf et al.
# Submitted via: CDex 1.51
#
DISCID=7908e409
DTITLE=Yonder - Yonder
DYEAR=1998
DGENRE=Country
TTITLE0=Blue As I Am
TTITLE1=Liquor and Love
TTITLE2=You're Here
TTITLE3=Keep It Alive
TTITLE4=Sweptaway
TTITLE5=Stop Drinkin' And Drivin' (Me Crazy)
TTITLE6=What's It Gonna Be Like
TTITLE7=Memory Way
TTITLE8=Friend
EXTD=YEAR: 1998
EXTT0=
EXTT1=
EXTT2=
EXTT3=
EXTT4=
EXTT5=
EXTT6=
EXTT7=
EXTT8=
PLAYORDER=
